<mxfile host="app.diagrams.net" modified="2024-05-04T04:00:05.460Z" agent="Mozilla/5.0 (Windows NT 10.0; Win64; x64) AppleWebKit/537.36 (KHTML, like Gecko) Chrome/124.0.0.0 Safari/537.36 Edg/124.0.0.0" etag="MwIci-9MWMnFJpquD3QX" version="24.2.5" type="github">
  <diagram name="Page-1" id="9f46799a-70d6-7492-0946-bef42562c5a5">
    <mxGraphModel dx="1272" dy="686" grid="1" gridSize="10" guides="1" tooltips="1" connect="1" arrows="1" fold="1" page="1" pageScale="1" pageWidth="1100" pageHeight="850" background="none" math="0" shadow="0">
      <root>
        <mxCell id="0" />
        <mxCell id="1" parent="0" />
        <mxCell id="KEdp7Dv5nMZ1zNsUdraF-30" value="&lt;p style=&quot;margin:0px;margin-top:4px;text-align:center;&quot;&gt;&lt;b&gt;置管日记&lt;/b&gt;&lt;/p&gt;&lt;p style=&quot;margin:0px;margin-top:4px;text-align:center;&quot;&gt;&lt;b&gt;CathterDiary&lt;/b&gt;&lt;/p&gt;&lt;hr size=&quot;1&quot; style=&quot;border-style:solid;&quot;&gt;&lt;p style=&quot;margin:0px;margin-left:4px;&quot;&gt;+ devents: List&amp;lt;DiaryEvent&amp;gt;&lt;/p&gt;&lt;hr size=&quot;1&quot; style=&quot;border-style:solid;&quot;&gt;&lt;p style=&quot;margin:0px;margin-left:4px;&quot;&gt;+ GetSelectedFeatures(): dict&lt;/p&gt;&lt;p style=&quot;margin:0px;margin-left:4px;&quot;&gt;+ AddEvent(nw: DiaryEvent): void&lt;/p&gt;" style="verticalAlign=top;align=left;overflow=fill;html=1;whiteSpace=wrap;" vertex="1" parent="1">
          <mxGeometry x="120" y="680" width="200" height="110" as="geometry" />
        </mxCell>
        <mxCell id="KEdp7Dv5nMZ1zNsUdraF-32" value="&lt;p style=&quot;margin:0px;margin-top:4px;text-align:center;&quot;&gt;&lt;b&gt;患者&lt;/b&gt;&lt;/p&gt;&lt;p style=&quot;margin:0px;margin-top:4px;text-align:center;&quot;&gt;&lt;b&gt;Patient&lt;/b&gt;&lt;/p&gt;&lt;hr size=&quot;1&quot; style=&quot;border-style:solid;&quot;&gt;&lt;p style=&quot;margin:0px;margin-left:4px;&quot;&gt;+ name: String&lt;/p&gt;&lt;p style=&quot;margin:0px;margin-left:4px;&quot;&gt;+ gender: boolean&lt;/p&gt;&lt;p style=&quot;margin:0px;margin-left:4px;&quot;&gt;+ contact_info: String&lt;/p&gt;&lt;p style=&quot;margin:0px;margin-left:4px;&quot;&gt;+ birth: Date&lt;/p&gt;&lt;p style=&quot;margin:0px;margin-left:4px;&quot;&gt;+ height: float&lt;/p&gt;&lt;p style=&quot;margin:0px;margin-left:4px;&quot;&gt;+ weight: float&lt;/p&gt;&lt;p style=&quot;margin:0px;margin-left:4px;&quot;&gt;+ education: String&lt;/p&gt;&lt;p style=&quot;margin:0px;margin-left:4px;&quot;&gt;+ smoke: boolean&lt;/p&gt;&lt;p style=&quot;margin:0px;margin-left:4px;&quot;&gt;+ drink: boolean&lt;/p&gt;&lt;p style=&quot;margin:0px;margin-left:4px;&quot;&gt;+ tumor_his: boolean&lt;/p&gt;&lt;p style=&quot;margin:0px;margin-left:4px;&quot;&gt;+ catheter_his: boolean&lt;/p&gt;&lt;p style=&quot;margin:0px;margin-left:4px;&quot;&gt;+ anamnesis: dict&lt;/p&gt;&lt;p style=&quot;margin:0px;margin-left:4px;&quot;&gt;+ IsCatheterd: boolean&lt;/p&gt;&lt;p style=&quot;margin:0px;margin-left:4px;&quot;&gt;+ cte_diary: CathterDiary&lt;/p&gt;&lt;hr size=&quot;1&quot; style=&quot;border-style:solid;&quot;&gt;&lt;p style=&quot;margin:0px;margin-left:4px;&quot;&gt;+ UpdateInfo(): void&lt;/p&gt;&lt;p style=&quot;margin:0px;margin-left:4px;&quot;&gt;+ RiskModelPredict(): float&lt;/p&gt;&lt;p style=&quot;margin:0px;margin-left:4px;&quot;&gt;+ SurvModelPredict(): dict&lt;/p&gt;" style="verticalAlign=top;align=left;overflow=fill;html=1;whiteSpace=wrap;" vertex="1" parent="1">
          <mxGeometry x="120" y="260" width="200" height="310" as="geometry" />
        </mxCell>
        <mxCell id="KEdp7Dv5nMZ1zNsUdraF-33" value="&lt;p style=&quot;margin:0px;margin-top:4px;text-align:center;&quot;&gt;&lt;b&gt;医护&lt;/b&gt;&lt;/p&gt;&lt;p style=&quot;margin:0px;margin-top:4px;text-align:center;&quot;&gt;&lt;b&gt;Medic&lt;/b&gt;&lt;/p&gt;&lt;hr size=&quot;1&quot; style=&quot;border-style:solid;&quot;&gt;&lt;p style=&quot;margin:0px;margin-left:4px;&quot;&gt;+ province: String&lt;/p&gt;&lt;p style=&quot;margin:0px;margin-left:4px;&quot;&gt;+ hospital: String&lt;/p&gt;&lt;p style=&quot;margin:0px;margin-left:4px;&quot;&gt;+ hp_level: int&lt;/p&gt;&lt;p style=&quot;margin:0px;margin-left:4px;&quot;&gt;+ name: String&lt;/p&gt;&lt;p style=&quot;margin:0px;margin-left:4px;&quot;&gt;+ gender: boolean&lt;/p&gt;&lt;p style=&quot;margin:0px;margin-left:4px;&quot;&gt;+ age: int&lt;/p&gt;&lt;p style=&quot;margin:0px;margin-left:4px;&quot;&gt;+ title: String&lt;/p&gt;&lt;p style=&quot;margin:0px;margin-left:4px;&quot;&gt;+ contact_info: String&lt;/p&gt;&amp;nbsp;+ patients: List&amp;lt;Patient&amp;gt;&lt;div&gt;&amp;nbsp;+ cte_patients: List&amp;lt;Patient&amp;gt;&lt;br&gt;&lt;hr size=&quot;1&quot; style=&quot;border-style:solid;&quot;&gt;&lt;p style=&quot;margin:0px;margin-left:4px;&quot;&gt;+ UpdateInfo(): void&lt;/p&gt;&lt;p style=&quot;margin:0px;margin-left:4px;&quot;&gt;+ GetPatientPred(patient: Patient): void&lt;/p&gt;&lt;p style=&quot;margin:0px;margin-left:4px;&quot;&gt;+ SetPatientInfo(patient: Patient): void&lt;/p&gt;&lt;p style=&quot;margin:0px;margin-left:4px;&quot;&gt;&lt;br&gt;&lt;/p&gt;&lt;/div&gt;" style="verticalAlign=top;align=left;overflow=fill;html=1;whiteSpace=wrap;" vertex="1" parent="1">
          <mxGeometry x="480" y="260" width="220" height="310" as="geometry" />
        </mxCell>
        <mxCell id="KEdp7Dv5nMZ1zNsUdraF-34" value="&lt;p style=&quot;margin:0px;margin-top:4px;text-align:center;&quot;&gt;&lt;b&gt;用户&lt;/b&gt;&lt;/p&gt;&lt;p style=&quot;margin:0px;margin-top:4px;text-align:center;&quot;&gt;&lt;b&gt;User&lt;/b&gt;&lt;/p&gt;&lt;hr size=&quot;1&quot; style=&quot;border-style:solid;&quot;&gt;&lt;p style=&quot;margin:0px;margin-left:4px;&quot;&gt;+ user_id: String&lt;/p&gt;&lt;hr size=&quot;1&quot; style=&quot;border-style:solid;&quot;&gt;&lt;p style=&quot;margin:0px;margin-left:4px;&quot;&gt;+ ShowQR(): void&lt;/p&gt;&lt;p style=&quot;margin:0px;margin-left:4px;&quot;&gt;+ ScanQR(): void&lt;/p&gt;" style="verticalAlign=top;align=left;overflow=fill;html=1;whiteSpace=wrap;" vertex="1" parent="1">
          <mxGeometry x="320" y="60" width="160" height="110" as="geometry" />
        </mxCell>
        <mxCell id="KEdp7Dv5nMZ1zNsUdraF-36" value="" style="edgeStyle=none;html=1;endSize=12;endArrow=block;endFill=0;rounded=0;exitX=0.5;exitY=0;exitDx=0;exitDy=0;entryX=0.5;entryY=1;entryDx=0;entryDy=0;" edge="1" parent="1" source="KEdp7Dv5nMZ1zNsUdraF-32" target="KEdp7Dv5nMZ1zNsUdraF-34">
          <mxGeometry width="160" relative="1" as="geometry">
            <mxPoint x="340" y="380" as="sourcePoint" />
            <mxPoint x="500" y="380" as="targetPoint" />
          </mxGeometry>
        </mxCell>
        <mxCell id="KEdp7Dv5nMZ1zNsUdraF-37" value="" style="edgeStyle=none;html=1;endSize=12;endArrow=block;endFill=0;rounded=0;exitX=0.5;exitY=0;exitDx=0;exitDy=0;entryX=0.5;entryY=1;entryDx=0;entryDy=0;" edge="1" parent="1" source="KEdp7Dv5nMZ1zNsUdraF-33" target="KEdp7Dv5nMZ1zNsUdraF-34">
          <mxGeometry width="160" relative="1" as="geometry">
            <mxPoint x="230" y="260" as="sourcePoint" />
            <mxPoint x="410" y="160" as="targetPoint" />
          </mxGeometry>
        </mxCell>
        <mxCell id="KEdp7Dv5nMZ1zNsUdraF-38" value="" style="endArrow=none;html=1;edgeStyle=orthogonalEdgeStyle;rounded=0;entryX=0;entryY=0.5;entryDx=0;entryDy=0;exitX=1;exitY=0.5;exitDx=0;exitDy=0;" edge="1" parent="1" source="KEdp7Dv5nMZ1zNsUdraF-32" target="KEdp7Dv5nMZ1zNsUdraF-33">
          <mxGeometry relative="1" as="geometry">
            <mxPoint x="330" y="430" as="sourcePoint" />
            <mxPoint x="510" y="440" as="targetPoint" />
          </mxGeometry>
        </mxCell>
        <mxCell id="KEdp7Dv5nMZ1zNsUdraF-39" value="patient" style="edgeLabel;resizable=0;html=1;align=left;verticalAlign=bottom;" connectable="0" vertex="1" parent="KEdp7Dv5nMZ1zNsUdraF-38">
          <mxGeometry x="-1" relative="1" as="geometry" />
        </mxCell>
        <mxCell id="KEdp7Dv5nMZ1zNsUdraF-40" value="medic" style="edgeLabel;resizable=0;html=1;align=right;verticalAlign=bottom;" connectable="0" vertex="1" parent="KEdp7Dv5nMZ1zNsUdraF-38">
          <mxGeometry x="1" relative="1" as="geometry" />
        </mxCell>
        <mxCell id="KEdp7Dv5nMZ1zNsUdraF-44" value="" style="endArrow=open;endFill=1;endSize=12;html=1;rounded=0;exitX=0.5;exitY=1;exitDx=0;exitDy=0;entryX=0.5;entryY=0;entryDx=0;entryDy=0;" edge="1" parent="1" source="KEdp7Dv5nMZ1zNsUdraF-32" target="KEdp7Dv5nMZ1zNsUdraF-30">
          <mxGeometry width="160" relative="1" as="geometry">
            <mxPoint x="310" y="670" as="sourcePoint" />
            <mxPoint x="220" y="760" as="targetPoint" />
          </mxGeometry>
        </mxCell>
      </root>
    </mxGraphModel>
  </diagram>
</mxfile>
